<svg width="55" height="68" viewBox="0 0 55 68" fill="none" xmlns="http://www.w3.org/2000/svg">
<mask id="mask0_5_36" style="mask-type:luminance" maskUnits="userSpaceOnUse" x="0" y="0" width="55" height="68">
<path d="M54.243 0H0V67.331H54.243V0Z" fill="white"/>
</mask>
<g mask="url(#mask0_5_36)">
<path d="M41.221 46.724L49.746 51.024C52.0281 47.2416 53.2379 42.9095 53.246 38.492C53.246 38.128 53.173 37.692 53.173 37.326H50.55C42.9 37.326 36.925 34.557 36.925 27.708V22.972C36.925 17.362 33.938 10.586 31.533 5.995C31.314 5.631 30.95 4.10101 32.917 5.19501C34.811 6.21501 36.05 3.59499 35.617 2.06199C34.961 0.021986 30.808 -0.706997 28.622 0.823003C23.813 4.247 20.316 13.574 20.316 22.973V27.709C20.316 34.558 14.341 37.327 6.69101 37.327H4.06799C4.06799 37.691 3.995 38.127 3.995 38.493C4.00306 42.9105 5.21294 47.2426 7.495 51.025L16.02 46.725L8.51999 52.625C11.245 56.4678 15.0116 59.4517 19.376 61.225L23.966 51.316L21.489 62.027C23.7844 62.702 26.1644 63.0454 28.557 63.047C30.9492 63.0453 33.3289 62.7019 35.624 62.027L33.147 51.316L37.737 61.225C42.1014 59.4517 45.8681 56.4679 48.593 52.625L41.221 46.724ZM25.337 27.124C24.7198 27.1198 24.1291 26.8728 23.6927 26.4363C23.2562 25.9999 23.0092 25.4092 23.005 24.792C23.0183 24.5201 23.0674 24.2511 23.151 23.992C24.3498 24.9982 25.7749 25.6982 27.304 26.032C27.0795 26.3503 26.786 26.6138 26.4454 26.8029C26.1048 26.992 25.7259 27.1018 25.337 27.124ZM31.894 27.124C31.5099 27.1254 31.1323 27.0249 30.7996 26.833C30.4669 26.641 30.191 26.3643 30 26.031C31.5291 25.6973 32.9543 24.9972 34.153 23.991C34.243 24.2484 34.2923 24.5184 34.299 24.791C34.2664 25.4114 34.0005 25.9965 33.5547 26.4291C33.1089 26.8618 32.5151 27.11 31.894 27.124Z" fill="white"/>
</g>
</svg>
