<svg width="300" height="300" viewBox="0 0 300 300" fill="none" xmlns="http://www.w3.org/2000/svg">
<rect x="0.5" y="0.5" width="299" height="299" fill="white" stroke="#051923"/>
<path d="M222.5 147C222.5 180.608 190.427 208.5 150 208.5C109.573 208.5 77.5 180.608 77.5 147C77.5 113.392 109.573 85.5 150 85.5C190.427 85.5 222.5 113.392 222.5 147Z" fill="#D6A29E" stroke="#540B0E" stroke-width="5"/>
<mask id="path-3-outside-1_2_10" maskUnits="userSpaceOnUse" x="120" y="201" width="62" height="42" fill="black">
<rect fill="white" x="120" y="201" width="62" height="42"/>
<path d="M125 211C125 205.477 129.477 201 135 201H167C172.523 201 177 205.477 177 211V228C177 233.523 172.523 238 167 238H135C129.477 238 125 233.523 125 228V211Z"/>
</mask>
<path d="M125 211C125 205.477 129.477 201 135 201H167C172.523 201 177 205.477 177 211V228C177 233.523 172.523 238 167 238H135C129.477 238 125 233.523 125 228V211Z" fill="#D6A29E"/>
<path d="M125 201H177H125ZM182 228C182 236.284 175.284 243 167 243H135C126.716 243 120 236.284 120 228H130C130 230.761 132.239 233 135 233H167C169.761 233 172 230.761 172 228H182ZM135 243C126.716 243 120 236.284 120 228V216C120 207.716 126.716 201 135 201C132.239 201 130 205.477 130 211V228C130 230.761 132.239 233 135 233V243ZM167 201C175.284 201 182 207.716 182 216V228C182 236.284 175.284 243 167 243V233C169.761 233 172 230.761 172 228V211C172 205.477 169.761 201 167 201Z" fill="#540B0E" mask="url(#path-3-outside-1_2_10)"/>
<path d="M139.551 161.748C138.017 165.962 134.149 168.931 129.039 170.277C123.931 171.622 117.629 171.328 111.355 169.044C105.081 166.761 100.064 162.936 97.0159 158.621C93.9663 154.305 92.9119 149.545 94.4457 145.331C95.9794 141.117 99.8472 138.148 104.958 136.802C110.066 135.456 116.368 135.751 122.642 138.034C128.915 140.318 133.932 144.143 136.981 148.457C140.03 152.773 141.085 157.534 139.551 161.748Z" fill="#540B0E" stroke="#540B0E"/>
<path d="M203.357 145.5C204.891 149.714 203.837 154.475 200.787 158.791C197.739 163.105 192.722 166.93 186.448 169.214C180.174 171.497 173.872 171.792 168.764 170.446C163.654 169.1 159.786 166.131 158.252 161.917C156.718 157.703 157.773 152.943 160.822 148.627C163.871 144.312 168.888 140.487 175.161 138.204C181.435 135.92 187.737 135.626 192.845 136.971C197.956 138.317 201.824 141.286 203.357 145.5Z" fill="#540B0E" stroke="#540B0E"/>
<path d="M145.483 173.481C147.431 171.553 150.569 171.553 152.517 173.481L164.606 185.446C167.781 188.589 165.556 194 161.089 194H136.911C132.444 194 130.219 188.589 133.394 185.446L145.483 173.481Z" fill="#540B0E"/>
<line x1="123" y1="219" x2="179" y2="219" stroke="#540B0E" stroke-width="4"/>
<path d="M134.502 215V226" stroke="#540B0E" stroke-width="4"/>
<path d="M143.002 212V228" stroke="#540B0E" stroke-width="3"/>
<path d="M152.502 215V225" stroke="#540B0E" stroke-width="4"/>
<line x1="161.502" y1="212" x2="161.502" y2="228" stroke="#540B0E" stroke-width="3"/>
<path d="M169.502 215V225" stroke="#540B0E" stroke-width="4"/>
<line x1="233.656" y1="57.6694" x2="198.011" y2="99.5551" stroke="#540B0E" stroke-width="18"/>
<line x1="104.257" y1="195.547" x2="66.1824" y2="235.237" stroke="#540B0E" stroke-width="18"/>
<path d="M90 45L104.95 68.0813L119.9 91.1627" stroke="#540B0E" stroke-width="18"/>
<line x1="193.385" y1="195.856" x2="224.819" y2="240.989" stroke="#540B0E" stroke-width="18"/>
<path d="M75.473 35.0363C70.5093 34.775 66.2737 38.5871 66.0124 43.5508C65.7512 48.5145 69.5633 52.7501 74.527 53.0114L75.473 35.0363ZM74.527 53.0114L93.527 54.0114L94.473 36.0363L75.473 35.0363L74.527 53.0114Z" fill="#540B0E"/>
<path d="M239.096 47.1358C238.627 42.1875 234.235 38.5567 229.286 39.0263C224.338 39.4959 220.707 43.888 221.177 48.8363L239.096 47.1358ZM221.177 48.8363L222.974 67.7775L240.894 66.077L239.096 47.1358L221.177 48.8363Z" fill="#540B0E"/>
<path d="M100.352 32.5769C101.223 27.6832 97.9617 23.0101 93.068 22.1392C88.1743 21.2683 83.5012 24.5294 82.6303 29.4231L100.352 32.5769ZM82.6303 29.4231L79.1392 49.0397L96.8608 52.1935L100.352 32.5769L82.6303 29.4231Z" fill="#540B0E"/>
<path d="M243.917 69.6076C248.879 69.8901 253.131 66.0962 253.414 61.1337C253.697 56.1712 249.903 51.9192 244.94 51.6367L243.917 69.6076ZM244.94 51.6367L225.047 50.5042L224.024 68.4751L243.917 69.6076L244.94 51.6367Z" fill="#540B0E"/>
<path d="M240.484 252.201C245.403 252.918 249.972 249.513 250.689 244.595C251.407 239.676 248.002 235.107 243.083 234.389L240.484 252.201ZM243.083 234.389L223.367 231.512L220.768 249.324L240.484 252.201L243.083 234.389Z" fill="#540B0E"/>
<path d="M215.548 253.898C214.582 258.773 217.751 263.509 222.627 264.476C227.502 265.442 232.238 262.273 233.205 257.398L215.548 253.898ZM233.205 257.398L237.079 237.853L219.423 234.353L215.548 253.898L233.205 257.398Z" fill="#540B0E"/>
<path d="M56.5509 253.536C57.0861 258.478 61.526 262.05 66.4677 261.515C71.4094 260.979 74.9815 256.54 74.4462 251.598L56.5509 253.536ZM74.4462 251.598L72.3006 231.789L54.4052 233.727L56.5509 253.536L74.4462 251.598Z" fill="#540B0E"/>
<path d="M46.8916 228.318C41.9226 228.194 37.7942 232.122 37.6705 237.091C37.5469 242.06 41.4749 246.189 46.4439 246.312L46.8916 228.318ZM46.4439 246.312L66.3626 246.808L66.8103 228.814L46.8916 228.318L46.4439 246.312Z" fill="#540B0E"/>
</svg>
